<svg xmlns="http://www.w3.org/2000/svg" viewBox="0 0 16 16" fill="#53d58d">
	<!-- <rect width="100%" height="100%" fill="#333" stroke="none"/> -->
	<!-- <path d="M.5 4 v8
					m4 -1 -3 -3 3 -3 m-3 3
					h13 m-3 -3 3 3 -3 3
					m4 1 v-8"/> -->
	<!-- <path d="M.5 4 v8
					M4 11 l-3 -3 3 -3
					M11.5 5 l3 3 -3 3
					M15.5 12 v-8" stroke="#53d58d" fill="none" stroke-linejoin="round"/> -->
	<!-- <path d="M0 3 h1 v10 h-1z
					M3.5 9 l2 2 l-1 1 l-3 -3 q-1 -1 0 -2 l3 -3 l1 1 -2 2 h9 l-2 -2 l1 -1 l3 3 q1 1 0 2 l-3 3 l-1 -1 l2 -2z
					M15 3 h1 v10 h-1z"/> -->
	<path d="M0 3 h1 v10 h-1z
					M3.5 7 q-1 1 0 2 l2 2 l-1 1 l-3 -3 q-1 -1 0 -2 l3 -3 l1 1z
					M12.5 7 q1 1 0 2 l-2 2 l1 1 l3 -3 q1 -1 0 -2 l-3 -3 l-1 1z
					M15 3 h1 v10 h-1z"/>
</svg>