<svg xmlns="http://www.w3.org/2000/svg" viewBox="0 0 64 64" stroke="#f82" stroke-width="2" fill="#444" stroke-linejoin="round">
	<!-- <rect width="100%" height="100%" fill="#333" stroke="none"/> -->
	<!-- <path d="M8 1 h32 v16 h-32z M16 24 h16 l8 16 h-24z" stroke="#666"/>
	<path d="M32 24 h16 v16 h-8 M24 47 h32 v16 h-32z" fill="#080" stroke="#53d58d"/> -->
	<path d="M23 24 l23 -23 16 16 -23 23" fill="#333"/>
	<path d="M39 40 h-16 q-8 -8 0 -16z"/>
	<g stroke-width="4">
		<path stroke="#666" d="M22 61 h6 m1 -6 h6 m1 -6 h6 "/>
		<path stroke="#53d58d" d="M1 61 h6 m1 -6 h6 m1 -6 h6 M43 61 h6 m0 -6 h6 m0 -6 h6"/>
	</g>
</svg>