<svg xmlns="http://www.w3.org/2000/svg" viewBox="0 0 64 64" stroke="#53d58d" stroke-width="2" fill="#333">
	<!-- <rect width="100%" height="100%" fill="#666" stroke="none"/> -->
	<!-- <path d="M1 20 Q1 19 1.5 18 L4 14 Q4.5 13 6 13 H14 Q15.5 13 16 14 L19 19 Q19.5 20 21 20 H54 Q55 20 55 21 V51 Q55 52 54 52 H2 Q1 52 1 51Z"/> -->
	<!-- <path d="M8.5 25 Q9 24 10 24 H62 Q63 24 62.5 25 L55 51 Q55 52 54 52 H2 Q1 52 1 51Z"/> -->
	<path d="M1 8 q0 -1 .5 -2 l2.5 -4 q.5 -1 2 -1 h8 q1.5 0 2 1 l3 5 q.5 1 2 1 h33 q1 0 1 1 v53 q0 1 -1 1 h-52 q-1 0 -1 -1z"/>
	<path d="M8.83 16 q.16 -1 1.17 -1 h52 q1 0 .83 1 l-7.66 46 q-.17 1 -1.17 1 h-52 q-1 0 -.83 -1z" fill="#444"/>
</svg>