<svg xmlns="http://www.w3.org/2000/svg" viewBox="0 0 64 64" stroke="#00FE3F" stroke-width="0" fill="#00FE3F">
	<!-- <rect width="100%" height="100%" fill="#333" stroke="none"/> -->
	<!-- <path d="M28 36 c0 -12 16 -12 16 0 c0 18 -24 18 -24 2 c0 -16 22 -12 22 -28 c0 -8 -6 -8 -6 4 V57 c0 9 -12 9 -12 0 c0 -5 8 -5 8 0 c0 5 -6 5 -6 0 c0 8 9 8 9 0 V12 c0 -15 10 -15 10 -2 c0 16 -22 12 -22 28 c0 14 18 14 18 0 c0 -9 -12 -9 -12 -2"/> -->
	<path  transform="rotate(-10,48,32)" d="M44 42 q-4 -2 -4 -6 c0 -12 16 -12 16 0 c0 18 -24 18 -24 2 c0 -16 22 -12 22 -28 c0 -8 -6 -8 -6 4 V56 c0 9 -12 9 -12 0 c0 -5 8 -5 8 0 c0 5 -6 5 -6 0 c0 8 9 8 9 0 V12 c0 -15 10 -15 10 -2 c0 16 -22 12 -22 28 c0 14 18 14 18 0 c0 -9 -12 -9 -12 -2 q0 4 3 6"/>
	<path d="M4 4 h24
					m0 8 h-24
					m0 8 h24
					m0 8 h-24
					m0 8 h24
					M16 48 h12 m-6 -6 v12" stroke-width="2"/>
</svg>