<svg xmlns="http://www.w3.org/2000/svg" viewBox="0 0 64 64" stroke="#53d58d" stroke-width="2" fill="#444" stroke-linecap="round" stroke-linejoin="round">
	<path d="M1 15 h29 v1 h4 v-1 h29 v47 h-29 v1 h-4 v-1 h-29z" fill="#333" />
	<path d="M4 12 Q32 8 32 16 v47 Q32 55 4 59 z"/>
	<!-- <path d="M60 12 Q32 8 32 16 v47 Q32 55 60 59z"/> -->
	<path d="M58 10 Q32 4 32 16 v47 Q32 51 58 57z" fill="#53d58d"/>
	<path d="M48 36 l4 4 l-4 4" fill="none" stroke="#444" />
	<!-- <path stroke="#fff" opacity=".5"
				d="M8 16 l2 -.25 v16 l-2 .25z
					m5 -.55 v16
					m-3 -15.7 q13 -1.4 18.4 .55
					m0 4 q-5.4 -1.95 -18.4 -.55
					m0 4 q13 -1.4 18.4 .55
					m0 4 q-5.4 -1.95 -18.4 -.55
					m0 4 q13 -1.4 18.4 .55"/> -->
	<!-- <path stroke="#fff" opacity=".5"
				d="M35.6 16.3 l2 -.55 v16 l-2 .55z
					m5 -1 v16
					m-3 -15.55 q6 -1.3 18.4 .25
					m0 4 q-12.4 -1.55 -18.4 -.25
					m0 4 q6 -1.3 18.4 .25
					m0 4 q-12.4 -1.55 -18.4 -.25
					m0 4 q6 -1.3 18.4 .25"/> -->
</svg>