<svg xmlns="http://www.w3.org/2000/svg" viewBox="0 0 64 64" stroke="#53d58d" stroke-width="2" fill="#333" stroke-linejoin="round">
	<path d="M12 61 l10 -60 h20 l10 60z"/>
	<g transform="rotate(-30,32,56)" stroke-linejoin="round" fill="#444">
		<path d="M32 56 v-56"/>
		<path d="M28 4 h8 l-2 6 h-4z"/>
	</g>
	<!-- <path d="M32 50 v-40 m-5 2 h10 m-9 2.5 h8 m-7 3 h6 m-5 3.5 h4 m-3 4 h2" stroke-width="1"/> -->
	<path d="M32 50 v-40 m-4 2 h8 m0 4 h-8 m0 4 h8 m0 4 h-8 m0 4 h8 m0 4 h-8" stroke-width="1"/>
	<path d="M12 63 v-2 l2 -12 h36 l2 12 v2z" fill="#444"/>
</svg>